<?xml version="1.0" encoding="UTF-8" standalone="no"?>
<svg width="800" height="600" viewBox="0 0 800 600" xmlns="http://www.w3.org/2000/svg">
  <defs>
    <!-- Gradient definitions -->
    <linearGradient id="gradient-blue" x1="0%" y1="0%" x2="100%" y2="100%">
      <stop offset="0%" stop-color="#B7F3EC" />
      <stop offset="100%" stop-color="#6BE5D8" />
    </linearGradient>

    <linearGradient id="gradient-turquoise" x1="0%" y1="0%" x2="100%" y2="100%">
      <stop offset="0%" stop-color="#91ECE2" />
      <stop offset="100%" stop-color="#39DBC9" />
    </linearGradient>

    <linearGradient id="gradient-dark" x1="0%" y1="0%" x2="100%" y2="100%">
      <stop offset="0%" stop-color="#333333" />
      <stop offset="100%" stop-color="#111111" />
    </linearGradient>

    <!-- Filter for texture -->
    <filter id="texture" x="0%" y="0%" width="100%" height="100%">
      <feTurbulence type="fractalNoise" baseFrequency="0.01" numOctaves="3" result="noise" />
      <feDiffuseLighting in="noise" lighting-color="#fff" surfaceScale="1.5" result="light">
        <feDistantLight azimuth="45" elevation="60" />
      </feDiffuseLighting>
      <feBlend in="SourceGraphic" in2="light" mode="soft-light" result="blend" />
    </filter>

    <!-- Mask for text areas -->
    <mask id="text-mask-1">
      <rect width="100%" height="100%" fill="white" />
      <rect x="50" y="120" width="700" height="80" rx="10" fill="black" />
    </mask>

    <mask id="text-mask-2">
      <rect width="100%" height="100%" fill="white" />
      <rect x="50" y="260" width="700" height="80" rx="10" fill="black" />
    </mask>

    <mask id="text-mask-3">
      <rect width="100%" height="100%" fill="white" />
      <rect x="50" y="400" width="700" height="80" rx="10" fill="black" />
    </mask>
  </defs>

  <!-- Background with subtle texture -->
  <rect width="100%" height="100%" fill="#f8f9fa" filter="url(#texture)" />

  <!-- Abstract background shapes -->
  <g opacity="0.8">
    <!-- Flowing lines -->
    <path d="M-100,100 C0,50 100,150 200,100 S300,50 400,100 S500,150 600,100 S700,50 900,100" stroke="#6BE5D8" stroke-width="3" fill="none" opacity="0.3" />
    <path d="M-100,200 C0,150 100,250 200,200 S300,150 400,200 S500,250 600,200 S700,150 900,200" stroke="#39DBC9" stroke-width="2" fill="none" opacity="0.4" />
    <path d="M-100,300 C0,250 100,350 200,300 S300,250 400,300 S500,350 600,300 S700,250 900,300" stroke="#22C3B2" stroke-width="4" fill="none" opacity="0.2" />
    <path d="M-100,400 C0,350 100,450 200,400 S300,350 400,400 S500,450 600,400 S700,350 900,400" stroke="#1A9589" stroke-width="2" fill="none" opacity="0.3" />
    <path d="M-100,500 C0,450 100,550 200,500 S300,450 400,500 S500,550 600,500 S700,450 900,500" stroke="#13675F" stroke-width="3" fill="none" opacity="0.2" />

    <!-- Circular elements with gradients -->
    <circle cx="100" cy="150" r="50" fill="url(#gradient-blue)" opacity="0.2" />
    <circle cx="700" cy="150" r="70" fill="url(#gradient-turquoise)" opacity="0.15" />
    <circle cx="200" cy="300" r="60" fill="url(#gradient-turquoise)" opacity="0.2" />
    <circle cx="600" cy="300" r="40" fill="url(#gradient-blue)" opacity="0.15" />
    <circle cx="150" cy="450" r="70" fill="url(#gradient-turquoise)" opacity="0.15" />
    <circle cx="650" cy="450" r="50" fill="url(#gradient-blue)" opacity="0.2" />
  </g>

  <!-- Text area backgrounds -->
  <rect x="50" y="120" width="700" height="80" rx="10" fill="white" stroke="#6BE5D8" stroke-width="2" opacity="0.9" />
  <rect x="50" y="260" width="700" height="80" rx="10" fill="white" stroke="#6BE5D8" stroke-width="2" opacity="0.9" />
  <rect x="50" y="400" width="700" height="80" rx="10" fill="white" stroke="#6BE5D8" stroke-width="2" opacity="0.9" />
</svg>
