<?xml version="1.0" encoding="UTF-8" standalone="no"?>
<svg width="800" height="400" viewBox="0 0 800 400" xmlns="http://www.w3.org/2000/svg">
  <defs>
    <!-- Gradient definitions -->
    <linearGradient id="gradient-blue" x1="0%" y1="0%" x2="100%" y2="100%">
      <stop offset="0%" stop-color="#B7F3EC" />
      <stop offset="100%" stop-color="#6BE5D8" />
    </linearGradient>
    
    <linearGradient id="gradient-turquoise" x1="0%" y1="0%" x2="100%" y2="100%">
      <stop offset="0%" stop-color="#91ECE2" />
      <stop offset="100%" stop-color="#39DBC9" />
    </linearGradient>
    
    <!-- Filter for texture -->
    <filter id="texture" x="0%" y="0%" width="100%" height="100%">
      <feTurbulence type="fractalNoise" baseFrequency="0.01" numOctaves="3" result="noise" />
      <feDiffuseLighting in="noise" lighting-color="#fff" surfaceScale="1.5" result="light">
        <feDistantLight azimuth="45" elevation="60" />
      </feDiffuseLighting>
      <feBlend in="SourceGraphic" in2="light" mode="soft-light" result="blend" />
    </filter>
  </defs>
  
  <!-- Background with subtle texture -->
  <rect width="100%" height="100%" fill="#f8f9fa" filter="url(#texture)" />
  
  <!-- Abstract background shapes -->
  <g opacity="0.5">
    <!-- Flowing lines -->
    <path d="M-100,50 C0,25 100,75 200,50 S300,25 400,50 S500,75 600,50 S700,25 900,50" stroke="#6BE5D8" stroke-width="2" fill="none" opacity="0.3" />
    <path d="M-100,150 C0,125 100,175 200,150 S300,125 400,150 S500,175 600,150 S700,125 900,150" stroke="#39DBC9" stroke-width="1" fill="none" opacity="0.2" />
    <path d="M-100,250 C0,225 100,275 200,250 S300,225 400,250 S500,275 600,250 S700,225 900,250" stroke="#22C3B2" stroke-width="2" fill="none" opacity="0.15" />
    <path d="M-100,350 C0,325 100,375 200,350 S300,325 400,350 S500,375 600,350 S700,325 900,350" stroke="#1A9589" stroke-width="1" fill="none" opacity="0.2" />
    
    <!-- Circular elements with gradients -->
    <circle cx="50" cy="50" r="30" fill="url(#gradient-blue)" opacity="0.1" />
    <circle cx="750" cy="50" r="40" fill="url(#gradient-turquoise)" opacity="0.1" />
    <circle cx="100" cy="200" r="35" fill="url(#gradient-turquoise)" opacity="0.1" />
    <circle cx="700" cy="200" r="25" fill="url(#gradient-blue)" opacity="0.1" />
    <circle cx="50" cy="350" r="40" fill="url(#gradient-turquoise)" opacity="0.1" />
    <circle cx="750" cy="350" r="30" fill="url(#gradient-blue)" opacity="0.1" />
  </g>
  
  <!-- Text area background -->
  <rect x="50" y="100" width="700" height="200" rx="10" fill="white" stroke="#6BE5D8" stroke-width="1" opacity="0.9" />
</svg>
